<?xml version="1.0" standalone="no"?>
<!DOCTYPE svg PUBLIC "-//W3C//DTD SVG 20010904//EN"
 "http://www.w3.org/TR/2001/REC-SVG-20010904/DTD/svg10.dtd">
<svg version="1.0" xmlns="http://www.w3.org/2000/svg"
 width="500.000000pt" height="500.000000pt" viewBox="0 0 500.000000 500.000000"
 preserveAspectRatio="xMidYMid meet">

<g transform="translate(0.000000,500.000000) scale(0.100000,-0.100000)"
fill="#000000" stroke="none">
<path d="M2710 4962 c-30 -15 -73 -42 -96 -60 -38 -31 -43 -32 -104 -26 -36 3
-77 10 -91 16 -21 7 -37 5 -72 -11 -24 -11 -64 -23 -88 -26 -141 -20 -197 -39
-338 -112 l-143 -74 -50 12 c-45 12 -53 11 -86 -6 -20 -11 -54 -43 -77 -72
-22 -29 -71 -73 -109 -99 -60 -41 -71 -45 -93 -35 -13 6 -37 11 -54 11 -28 0
-33 -6 -65 -77 -50 -110 -51 -110 -92 -71 -22 22 -36 29 -39 21 -3 -7 -13 -13
-24 -13 -17 0 -14 -6 16 -35 19 -20 35 -39 35 -43 0 -4 -21 -28 -46 -52 -44
-44 -46 -44 -60 -25 -12 15 -14 34 -9 75 l6 55 -21 -34 c-18 -28 -26 -32 -51
-29 -25 4 -35 -1 -55 -27 -34 -44 -126 -244 -158 -342 -29 -86 -57 -133 -82
-133 -25 0 -74 -30 -74 -45 0 -8 -19 -24 -42 -36 -23 -12 -36 -24 -30 -28 28
-17 3 -64 -85 -154 -100 -103 -143 -157 -143 -179 0 -23 -40 -108 -50 -108 -6
0 -10 -7 -10 -16 0 -19 93 72 96 94 3 20 33 62 44 62 6 0 10 5 10 11 0 13 94
105 122 120 36 19 17 -7 -69 -95 -49 -50 -77 -81 -64 -71 l24 20 -8 -25 c-8
-24 -6 -23 29 8 40 35 59 43 33 14 -10 -10 -17 -24 -17 -30 0 -6 -33 -44 -73
-84 -79 -80 -132 -140 -104 -119 23 18 22 10 -9 -57 -14 -31 -36 -79 -49 -107
-12 -27 -26 -63 -29 -78 -4 -15 -11 -25 -15 -22 -12 7 -31 -82 -23 -103 4 -11
1 -14 -10 -10 -19 8 -38 -9 -32 -27 3 -7 -5 -29 -17 -49 -11 -20 -22 -51 -23
-69 -2 -17 -6 -44 -10 -59 -9 -31 10 -41 20 -10 13 38 45 104 49 100 8 -8 -26
-122 -41 -139 -13 -15 -13 -17 6 -22 19 -5 20 -10 14 -59 -4 -29 -13 -60 -21
-69 -12 -14 -11 -18 2 -29 14 -12 14 -15 -5 -35 -11 -12 -20 -31 -20 -42 0
-35 12 -83 21 -83 5 0 6 7 2 15 -3 10 0 15 8 13 9 -2 15 16 21 62 4 36 9 74
12 84 3 11 0 26 -6 33 -7 9 -7 13 0 13 6 0 16 16 22 35 13 39 34 49 24 11 -13
-53 -8 -316 8 -441 9 -71 22 -175 28 -230 14 -124 36 -230 55 -269 8 -16 15
-35 15 -42 0 -31 55 -178 74 -198 11 -13 37 -46 56 -75 19 -28 46 -66 60 -83
14 -17 34 -46 45 -63 11 -17 29 -46 40 -63 24 -38 50 -44 39 -9 -4 12 -17 32
-30 44 -13 12 -24 31 -24 43 0 11 -4 20 -10 20 -5 0 -10 4 -10 9 0 5 -14 23
-30 39 -17 17 -30 37 -30 46 0 8 -11 23 -23 33 -33 26 -47 55 -47 100 0 27 -3
34 -10 23 -7 -11 -11 -9 -19 13 -6 16 -11 37 -11 48 0 11 -4 17 -10 14 -6 -4
-10 17 -10 54 0 34 4 61 10 61 6 0 10 -7 10 -15 0 -26 53 -148 88 -202 18 -29
31 -57 27 -63 -3 -5 -1 -10 4 -10 6 0 11 18 11 40 0 22 5 40 10 40 6 0 10 -20
10 -44 0 -25 5 -57 10 -71 9 -23 13 -25 25 -15 25 21 46 4 43 -34 -1 -19 5
-42 13 -52 7 -9 13 -27 12 -38 -3 -20 -2 -20 9 2 6 12 15 22 19 22 12 0 39
-42 39 -62 0 -9 31 -50 70 -89 38 -40 72 -80 76 -91 3 -10 12 -18 19 -18 19 0
69 -50 89 -88 12 -23 21 -29 36 -25 11 3 28 -1 38 -9 9 -9 24 -15 32 -15 17 0
140 -91 140 -103 0 -4 9 -10 20 -13 12 -3 20 -14 20 -25 0 -11 6 -23 13 -25 9
-4 9 -8 -2 -15 -21 -15 4 -50 52 -73 23 -10 76 -40 117 -65 41 -26 103 -56
137 -68 33 -12 68 -28 77 -35 11 -9 16 -10 16 -2 0 18 25 13 45 -9 11 -12 40
-32 67 -45 40 -20 49 -22 56 -9 6 11 12 8 30 -16 24 -31 47 -39 55 -17 4 7 8
4 12 -8 12 -39 142 -78 300 -90 75 -6 88 -5 77 6 -7 7 -36 16 -65 19 -45 4
-52 8 -55 29 -4 23 -2 24 45 17 227 -32 683 -36 683 -5 0 5 -18 9 -40 9 -22 0
-40 5 -40 10 0 6 9 10 19 10 11 0 23 5 26 11 5 7 -15 10 -63 8 -65 -3 -71 -5
-69 -24 3 -28 -25 -26 -38 2 -8 20 -17 23 -65 23 -68 0 -311 26 -365 39 -82
20 -111 28 -131 39 -48 26 -191 73 -222 74 -20 0 -36 6 -42 17 -5 10 -28 25
-52 35 -80 34 -133 59 -148 71 -8 7 -26 15 -40 18 -32 8 -86 52 -74 60 6 3 60
-18 120 -47 60 -30 132 -61 159 -71 28 -9 60 -23 72 -31 14 -8 24 -10 28 -4
10 15 22 12 27 -8 9 -31 266 -110 428 -132 47 -6 98 -16 114 -21 23 -7 27 -6
22 7 -3 9 -6 19 -6 22 0 4 -30 8 -67 10 -44 1 -78 9 -100 22 -18 10 -33 15
-33 10 0 -6 -7 -10 -15 -10 -8 0 -15 7 -15 16 0 12 -6 15 -24 10 -15 -4 -30
-1 -39 8 -8 8 -24 12 -41 9 -19 -4 -34 1 -49 15 -12 11 -42 29 -67 41 -25 12
-56 27 -70 35 -48 27 -105 50 -125 50 -19 1 -35 13 -35 27 0 7 71 -15 102 -32
20 -11 24 1 6 19 -6 6 -9 15 -5 18 3 3 19 -7 34 -24 30 -32 91 -67 101 -58 3
3 11 1 19 -5 16 -14 17 -5 2 22 -7 13 -16 18 -26 14 -10 -3 -27 4 -42 19 -15
14 -60 39 -100 56 -41 16 -79 34 -85 39 -10 8 -69 25 -91 26 -17 1 -217 135
-257 173 -22 21 -47 34 -62 34 -14 0 -26 4 -26 9 0 5 -15 26 -33 46 -19 21
-37 46 -40 56 -4 10 -12 15 -18 11 -6 -3 -14 -2 -18 3 -3 6 -19 14 -36 20 -20
6 -36 22 -49 47 -13 28 -22 36 -35 31 -33 -14 -46 -10 -47 15 -2 55 -5 61 -29
70 -14 5 -28 17 -32 25 -3 9 -12 14 -19 11 -20 -8 -25 9 -14 40 8 19 8 30 0
38 -13 13 -13 39 0 34 5 -2 31 -39 57 -83 34 -57 54 -81 71 -83 12 -2 22 -8
22 -13 0 -6 4 -7 10 -4 5 3 26 -10 45 -30 52 -51 65 -43 16 10 -22 24 -41 54
-41 66 0 21 1 21 25 -5 14 -15 25 -31 25 -37 0 -5 6 -9 14 -9 8 0 19 -14 25
-31 9 -27 13 -30 26 -19 12 10 18 10 30 0 8 -7 15 -17 15 -22 0 -5 14 -21 30
-35 19 -15 29 -32 26 -42 -3 -11 15 -33 55 -66 33 -27 89 -78 125 -113 37 -34
72 -62 79 -62 8 0 49 -17 92 -39 43 -21 110 -53 148 -71 39 -17 93 -43 120
-56 53 -24 287 -104 308 -104 6 0 24 -7 39 -14 15 -8 40 -14 55 -14 16 1 39
-2 53 -6 62 -18 60 -19 60 13 0 27 -4 31 -25 31 -19 0 -25 5 -23 17 2 14 -17
22 -107 45 -157 39 -217 59 -238 80 -10 10 -27 18 -37 18 -11 0 -20 5 -20 11
0 7 9 9 23 5 112 -29 227 -47 362 -56 88 -6 194 -15 235 -20 41 -5 129 -15
195 -21 66 -6 123 -13 127 -16 22 -13 67 -11 72 3 9 24 65 42 233 73 87 16
171 34 186 40 16 6 40 11 55 11 15 0 36 7 46 15 11 8 26 15 34 15 15 0 267
109 317 137 17 9 51 27 78 40 26 13 47 28 47 33 0 5 30 26 68 45 82 44 131 74
156 97 11 10 28 18 37 18 10 0 22 6 26 14 4 7 33 31 63 52 76 53 190 155 190
170 0 18 102 223 173 349 53 94 110 271 143 440 8 44 21 103 29 130 8 28 19
115 24 194 10 143 9 143 -29 355 -22 116 -46 234 -54 261 -8 28 -14 73 -14
100 1 137 -31 372 -67 494 -49 168 -91 250 -180 352 -40 46 -71 86 -233 304
-94 127 -115 150 -287 315 -112 107 -203 165 -407 260 -68 32 -250 74 -458
106 -137 21 -207 40 -252 71 -20 14 -41 22 -47 19 -5 -3 -45 8 -88 25 -43 17
-82 32 -88 34 -5 2 -35 -8 -65 -23z m584 -278 c180 -32 310 -75 394 -131 36
-23 74 -45 84 -49 10 -3 18 -10 18 -15 0 -5 20 -18 45 -29 49 -21 105 -72 105
-96 0 -8 8 -18 18 -21 32 -13 44 -32 37 -63 -7 -34 -34 -41 -42 -11 -4 14 -17
21 -53 26 -35 5 -53 13 -64 29 -13 21 -22 23 -78 21 -35 -1 -69 3 -76 8 -12
10 -57 16 -115 16 -16 0 -41 10 -57 21 -15 11 -40 20 -54 20 -17 0 -26 6 -26
15 0 9 -12 18 -30 22 -17 3 -33 10 -36 14 -3 5 -22 9 -43 9 -20 0 -42 5 -48
11 -6 6 -50 13 -97 14 -68 2 -86 0 -86 -11 0 -8 -9 -14 -20 -14 -13 0 -20 7
-20 20 0 22 -15 27 -26 9 -3 -6 -17 -8 -31 -4 -39 9 -95 -5 -100 -26 -3 -11
-14 -19 -24 -19 -28 0 -27 70 1 90 11 8 20 19 20 25 0 5 13 16 29 23 16 7 46
26 67 43 20 16 45 29 54 29 10 0 25 11 34 25 21 32 40 32 220 -1z m-584 -33
c0 -10 6 -24 14 -30 8 -6 19 -32 25 -58 10 -37 9 -48 -1 -54 -8 -5 3 -8 27 -6
42 2 48 -4 34 -40 -9 -25 -35 -22 -42 5 -3 12 -5 11 -6 -5 -1 -27 -30 -37 -73
-26 -47 13 -71 6 -65 -19 5 -16 1 -19 -23 -16 -17 1 -37 -5 -49 -16 -12 -11
-21 -16 -21 -11 0 4 8 14 18 21 15 12 15 13 0 14 -9 0 -19 6 -21 13 -3 6 -6 2
-6 -10 -1 -17 -7 -21 -31 -21 -16 1 -36 -5 -44 -11 -23 -19 -61 -10 -61 15 0
19 127 142 250 242 45 36 75 42 75 13z m-574 -156 c-21 -16 -32 -13 -21 4 3 6
14 11 23 11 15 -1 15 -2 -2 -15z m1189 -55 c3 -5 17 -10 29 -10 13 0 29 -7 36
-15 7 -8 21 -15 31 -15 30 0 31 -18 3 -33 l-28 -14 38 -18 c33 -16 40 -16 74
-3 31 12 42 12 70 1 32 -13 40 -27 22 -38 -17 -10 -11 -25 10 -25 11 0 20 -6
21 -12 0 -10 2 -10 6 0 6 15 39 16 48 2 4 -6 15 -8 26 -5 16 5 19 1 19 -24 0
-36 8 -38 43 -11 27 22 47 26 47 10 0 -5 -5 -10 -11 -10 -6 0 -9 -6 -6 -14 3
-7 0 -20 -6 -27 -7 -7 -3 -6 8 2 20 16 55 22 55 9 0 -4 11 -5 25 -2 21 3 24 1
19 -12 -5 -12 0 -19 15 -23 11 -3 18 -10 15 -15 -3 -5 -13 -6 -23 -3 -42 18
-80 22 -85 10 -2 -7 4 -15 15 -18 10 -3 19 -10 19 -17 0 -6 -4 -9 -8 -6 -4 2
-13 -3 -19 -13 -17 -27 43 -70 120 -86 100 -21 207 -56 201 -66 -8 -13 42 -56
122 -108 52 -33 84 -64 130 -125 66 -89 143 -211 167 -266 55 -125 87 -211 83
-218 -3 -5 4 -33 15 -62 29 -77 50 -175 55 -257 2 -39 11 -98 19 -129 25 -95
26 -363 2 -569 -22 -191 -43 -291 -66 -307 -9 -7 -25 -34 -35 -60 -10 -26 -22
-50 -27 -53 -5 -4 -9 -16 -9 -28 0 -13 -9 -40 -20 -62 -11 -22 -20 -48 -20
-58 0 -10 -13 -32 -30 -49 -16 -16 -30 -39 -30 -52 0 -12 -9 -39 -20 -61 -11
-22 -20 -44 -20 -50 0 -5 -11 -23 -25 -40 l-25 -30 6 43 c9 58 -1 53 -20 -11
-17 -57 -52 -111 -66 -102 -5 3 -14 -3 -19 -14 -6 -11 -20 -22 -30 -26 -11 -3
-22 -19 -26 -35 -4 -17 -10 -30 -15 -30 -5 0 -12 -9 -15 -20 -14 -43 -23 -16
-19 53 6 84 -4 111 -34 84 -10 -9 -36 -23 -57 -30 -34 -12 -41 -20 -51 -58 -7
-24 -12 -40 -13 -34 -1 12 -22 -18 -54 -76 -51 -95 -83 -137 -104 -142 -29 -5
-33 -1 -33 37 -1 28 -4 25 -35 -34 -36 -68 -41 -85 -25 -75 6 3 10 1 10 -4 0
-6 -7 -11 -15 -11 -14 0 -107 -59 -113 -72 -2 -4 -10 -4 -18 -1 -8 3 -20 1
-27 -5 -6 -5 -28 -13 -47 -16 -81 -15 -126 -30 -137 -44 -12 -14 -13 -14 -13
0 0 20 -39 13 -47 -8 -6 -17 -33 -18 -34 -1 0 8 -2 8 -5 1 -3 -7 -14 -10 -24
-7 -12 3 -28 -4 -42 -20 -21 -22 -26 -24 -53 -13 -19 8 -25 15 -17 20 7 4 16
5 21 1 5 -3 12 -1 16 5 17 28 -268 -14 -288 -43 -7 -9 -10 -9 -14 1 -6 16 -79
16 -95 -1 -10 -11 -17 -11 -37 -1 -13 7 -28 11 -33 8 -4 -3 -89 -11 -189 -19
-197 -15 -374 -6 -417 21 -12 8 -27 12 -32 9 -6 -3 -10 -1 -10 4 0 6 -4 11
-10 11 -5 0 -10 -7 -10 -16 0 -9 -6 -14 -12 -11 -7 2 -12 11 -10 20 3 17 -46
34 -163 58 -97 19 -243 57 -268 70 -12 7 -71 60 -132 119 -60 59 -137 125
-170 147 -92 62 -303 290 -345 373 -12 24 -34 61 -47 81 -26 39 -57 120 -130
339 -24 74 -62 173 -84 220 -53 112 -69 211 -69 414 0 139 3 167 20 205 11 24
20 53 20 65 0 27 18 46 42 46 14 0 18 8 18 33 l-1 32 -22 -28 c-70 -87 -66
-84 -67 -61 0 11 7 43 15 70 9 31 11 50 4 55 -6 3 -4 11 6 19 8 7 18 10 21 7
10 -10 35 21 40 50 l5 28 -30 -29 c-17 -16 -33 -27 -37 -24 -3 4 6 30 20 58
31 61 31 60 10 60 -9 0 -14 6 -11 13 2 7 10 39 16 72 7 33 17 72 23 88 11 29
28 37 28 12 0 -8 4 -15 9 -15 5 0 14 7 21 15 10 12 10 15 -4 15 -23 0 -20 31
3 37 11 3 18 10 15 17 -8 21 275 296 305 296 6 0 15 9 21 19 5 11 28 27 49 37
22 9 44 28 50 41 6 12 17 23 26 23 8 0 15 4 15 8 0 9 83 72 94 72 3 0 6 -9 6
-20 0 -11 5 -20 10 -20 17 0 73 31 98 54 22 19 24 19 33 4 5 -9 16 -24 24 -32
8 -8 15 -21 15 -28 0 -7 6 -2 13 12 7 14 21 25 32 25 11 0 33 12 49 27 17 15
51 37 76 49 25 11 68 38 95 58 70 52 91 62 118 56 20 -5 26 -1 36 23 8 19 28
38 54 50 53 26 146 62 161 62 15 1 66 46 66 60 0 5 -7 10 -16 10 -9 0 -14 6
-11 13 2 6 12 12 23 12 13 0 18 -6 17 -22 -2 -20 -1 -20 25 -8 15 8 38 19 52
25 14 6 36 17 50 25 14 8 38 15 54 15 26 0 28 -2 23 -30 -5 -21 -3 -30 6 -30
7 0 14 12 15 26 3 34 11 46 28 40 8 -3 14 1 14 9 0 10 11 15 34 15 19 0 45 9
60 21 18 14 26 16 26 7 0 -7 9 -2 19 11 14 18 20 21 26 11 6 -10 10 -8 16 8 7
18 15 21 51 19 24 -2 62 0 84 4 39 7 185 21 229 21 11 0 49 -7 84 -16 71 -18
101 -16 59 4 -16 7 -28 17 -28 22 0 12 68 10 75 -2z m-735 -70 c0 -5 -2 -10
-4 -10 -3 0 -8 5 -11 10 -3 6 -1 10 4 10 6 0 11 -4 11 -10z m888 -28 c2 -7 -3
-12 -12 -12 -9 0 -16 7 -16 16 0 17 22 14 28 -4z m-1472 -44 c29 -10 58 -17
65 -16 8 2 14 -5 14 -17 0 -22 -28 -33 -97 -34 -30 -1 -53 -7 -64 -18 -10 -11
-29 -16 -46 -14 -15 1 -28 -2 -28 -7 0 -5 -24 -15 -52 -21 -88 -20 -118 -24
-118 -13 0 14 147 151 173 162 28 12 87 3 153 -22z m214 -2 c0 -3 -4 -8 -10
-11 -5 -3 -10 -1 -10 4 0 6 5 11 10 11 6 0 10 -2 10 -4z m1849 -38 c41 -32 41
-33 17 -36 -17 -2 -26 -10 -28 -25 -2 -12 -9 -21 -15 -20 -7 2 -10 -4 -7 -12
4 -9 1 -15 -7 -15 -16 0 -49 30 -49 44 0 6 7 3 15 -8 13 -18 14 -17 21 8 3 14
12 26 20 26 20 0 17 14 -6 35 -21 19 -26 35 -12 35 5 0 27 -15 51 -32z m-199
-32 c0 -3 -4 -8 -10 -11 -5 -3 -10 -1 -10 4 0 6 5 11 10 11 6 0 10 -2 10 -4z
m77 -38 c-3 -8 -6 -5 -6 6 -1 11 2 17 5 13 3 -3 4 -12 1 -19z m192 -20 c12
-35 10 -41 -11 -33 -9 4 -15 18 -14 35 1 39 11 38 25 -2z m-2464 -48 c-3 -5
-13 -10 -21 -10 -8 0 -12 5 -9 10 3 6 13 10 21 10 8 0 12 -4 9 -10z m145 0 c0
-5 -7 -10 -15 -10 -8 0 -15 5 -15 10 0 6 7 10 15 10 8 0 15 -4 15 -10z m2070
-4 c0 -3 -4 -8 -10 -11 -5 -3 -10 -1 -10 4 0 6 5 11 10 11 6 0 10 -2 10 -4z
m-2110 -15 c0 -14 -18 -23 -30 -16 -6 4 -8 11 -5 16 8 12 35 12 35 0z m2165
-11 c-3 -5 -13 -10 -21 -10 -8 0 -14 5 -14 10 0 6 9 10 21 10 11 0 17 -4 14
-10z m-2275 -8 c0 -5 -8 -16 -17 -25 -16 -13 -21 -14 -43 -2 l-25 14 25 10
c31 12 60 14 60 3z m-154 -160 c-7 -12 -46 -23 -46 -13 0 7 43 29 49 25 1 -2
0 -7 -3 -12z m154 -38 c0 -8 -4 -12 -10 -9 -5 3 -10 10 -10 16 0 5 5 9 10 9 6
0 10 -7 10 -16z m-40 -28 c0 -3 -4 -8 -10 -11 -5 -3 -10 -1 -10 4 0 6 5 11 10
11 6 0 10 -2 10 -4z m-150 -16 c0 -5 -5 -10 -11 -10 -5 0 -7 5 -4 10 3 6 8 10
11 10 2 0 4 -4 4 -10z m-1109 -673 c-1 -12 -15 -9 -19 4 -3 6 1 10 8 8 6 -3
11 -8 11 -12z m-70 -111 c-44 -66 -51 -92 -25 -82 12 5 11 -2 -6 -29 -12 -20
-35 -62 -50 -93 -26 -55 -60 -96 -60 -74 0 5 7 16 17 23 25 22 43 71 32 92 -7
13 -6 19 6 23 8 3 15 16 15 29 0 33 38 114 74 157 46 55 44 27 -3 -46z m99 -3
c-1 -15 -30 -46 -37 -40 -3 4 2 16 12 27 19 21 25 24 25 13z m-60 -73 c0 -5
-5 -10 -11 -10 -5 0 -7 5 -4 10 3 6 8 10 11 10 2 0 4 -4 4 -10z m-5 -76 c-15
-25 -29 -43 -32 -41 -8 9 16 79 34 99 30 34 29 -5 -2 -58z m-67 -206 c-16 -59
-24 -75 -26 -56 -2 15 2 36 7 47 6 11 11 29 11 40 0 27 21 79 27 64 2 -6 -6
-49 -19 -95z m82 -12 c0 -8 -4 -18 -10 -21 -5 -3 -10 3 -10 14 0 12 5 21 10
21 6 0 10 -6 10 -14z m-236 -40 c-3 -9 -13 -16 -22 -16 -13 0 -12 3 3 20 20
23 29 21 19 -4z m46 -119 c0 -23 -3 -53 -7 -66 -6 -22 -6 -22 -19 9 -17 39
-17 50 -4 85 14 37 30 22 30 -28z m68 41 c-2 -6 -10 -14 -16 -16 -7 -2 -10 2
-6 12 7 18 28 22 22 4z m36 -62 c-6 -25 -24 -37 -24 -15 0 15 21 52 26 46 3
-3 2 -16 -2 -31z m131 -246 c3 -5 1 -10 -4 -10 -6 0 -11 5 -11 10 0 6 2 10 4
10 3 0 8 -4 11 -10z m-78 -102 c-2 -13 -4 -5 -4 17 -1 22 1 32 4 23 2 -10 2
-28 0 -40z m-32 -80 c-9 -39 -13 -48 -24 -48 -5 0 -6 12 -4 28 7 42 11 52 23
52 8 0 9 -11 5 -32z m15 -244 c0 -8 -4 -12 -10 -9 -5 3 -10 13 -10 21 0 8 5
12 10 9 6 -3 10 -13 10 -21z m-60 -8 c0 -8 -4 -18 -10 -21 -5 -3 -10 3 -10 14
0 12 5 21 10 21 6 0 10 -6 10 -14z m120 -108 c0 -30 -4 -47 -10 -43 -6 3 -7
17 -4 29 4 16 0 25 -10 29 -16 6 -22 38 -9 50 15 16 33 -18 33 -65z m37 10
c-3 -7 -5 -2 -5 12 0 14 2 19 5 13 2 -7 2 -19 0 -25z m-127 -170 c0 -17 -3
-18 -14 -8 -8 6 -12 18 -9 26 7 19 23 7 23 -18z m131 -31 c-1 -12 -15 -9 -19
4 -3 6 1 10 8 8 6 -3 11 -8 11 -12z m-106 -37 c3 -5 2 -17 -3 -26 -8 -14 -10
-12 -14 10 -5 26 5 35 17 16z m206 -20 c5 0 9 -7 9 -15 0 -8 -6 -15 -14 -15
-16 0 -28 38 -18 54 4 7 8 4 10 -6 2 -10 8 -18 13 -18z m244 -138 c-6 -7 -34
29 -34 43 0 6 9 -1 20 -14 11 -13 17 -26 14 -29z m70 38 c3 -5 2 -10 -4 -10
-5 0 -13 5 -16 10 -3 6 -2 10 4 10 5 0 13 -4 16 -10z m-415 -35 c0 -8 -4 -15
-10 -15 -5 0 -10 7 -10 15 0 8 5 15 10 15 6 0 10 -7 10 -15z m204 -20 c3 -9 0
-15 -9 -15 -8 0 -15 7 -15 15 0 8 4 15 9 15 5 0 11 -7 15 -15z m153 -27 c-3
-8 -6 -5 -6 6 -1 11 2 17 5 13 3 -3 4 -12 1 -19z m3446 -39 c-4 -13 -9 -17
-16 -10 -12 12 -1 45 12 37 5 -3 7 -15 4 -27z m-3614 -56 c-2 -10 3 -28 10
-41 7 -13 11 -28 8 -35 -2 -7 -12 5 -21 25 -10 21 -16 45 -12 53 8 21 18 19
15 -2z m214 -32 c9 -16 17 -34 17 -40 0 -20 -15 -11 -35 22 -28 46 -28 47 -13
47 8 0 21 -13 31 -29z m-156 -68 c-3 -10 -5 -4 -5 12 0 17 2 24 5 18 2 -7 2
-21 0 -30z m3370 -25 c-3 -8 -6 -5 -6 6 -1 11 2 17 5 13 3 -3 4 -12 1 -19z
m-3242 2 c3 -5 1 -10 -4 -10 -6 0 -11 5 -11 10 0 6 2 10 4 10 3 0 8 -4 11 -10z
m-97 -52 c16 -16 16 -71 0 -66 -18 6 -37 48 -31 64 6 17 15 18 31 2z m52 -19
c0 -6 -4 -7 -10 -4 -5 3 -10 11 -10 16 0 6 5 7 10 4 6 -3 10 -11 10 -16z m129
-45 c22 -28 28 -50 11 -39 -5 3 -19 19 -30 35 -26 37 -9 40 19 4z m121 5 c7
-11 9 -23 6 -26 -8 -9 -47 28 -40 38 9 15 23 10 34 -12z m-200 -50 c0 -5 -4
-9 -10 -9 -5 0 -10 7 -10 16 0 8 5 12 10 9 6 -3 10 -10 10 -16z m3080 2 c0 -6
-4 -13 -10 -16 -5 -3 -10 1 -10 9 0 9 5 16 10 16 6 0 10 -4 10 -9z m-2722 -29
c20 -31 1 -27 -22 5 -12 16 -14 24 -6 21 7 -2 20 -14 28 -26z m-198 -2 c0 -5
-7 -10 -15 -10 -8 0 -15 5 -15 10 0 6 7 10 15 10 8 0 15 -4 15 -10z m110 0 c0
-5 -4 -10 -10 -10 -5 0 -10 5 -10 10 0 6 5 10 10 10 6 0 10 -4 10 -10z m110
-66 c-1 -9 -20 -8 -47 1 -7 2 -13 14 -13 26 l0 21 31 -20 c17 -10 30 -23 29
-28z m-310 16 c0 -5 -4 -10 -10 -10 -5 0 -10 5 -10 10 0 6 5 10 10 10 6 0 10
-4 10 -10z m400 -82 c0 -12 -14 -10 -28 4 -19 19 -14 29 8 16 11 -7 20 -16 20
-20z m2375 12 c-3 -5 -11 -10 -16 -10 -6 0 -7 5 -4 10 3 6 11 10 16 10 6 0 7
-4 4 -10z m-90 -20 c3 -5 1 -10 -4 -10 -6 0 -11 5 -11 10 0 6 2 10 4 10 3 0 8
-4 11 -10z m-25 -10 c0 -5 -2 -10 -4 -10 -3 0 -8 5 -11 10 -3 6 -1 10 4 10 6
0 11 -4 11 -10z m-2200 -15 c14 -17 5 -36 -15 -28 -16 6 -21 43 -6 43 5 0 14
-7 21 -15z m-280 -5 c8 -5 11 -12 8 -16 -10 -9 -38 3 -38 16 0 12 10 13 30 0z
m2415 0 c3 -5 1 -10 -4 -10 -6 0 -11 5 -11 10 0 6 2 10 4 10 3 0 8 -4 11 -10z
m-2063 -42 c19 -18 60 -49 91 -68 31 -19 57 -39 57 -43 0 -9 -3 -7 -63 30 -21
13 -42 21 -46 18 -5 -2 -16 6 -25 20 -10 15 -22 22 -31 19 -24 -10 -47 14 -34
37 5 10 11 19 13 19 2 0 20 -15 38 -32z m-290 -5 c25 -22 23 -43 -5 -43 -31 0
-35 5 -29 35 5 29 9 30 34 8z m2063 7 c3 -5 -1 -10 -9 -10 -9 0 -16 5 -16 10
0 6 4 10 9 10 6 0 13 -4 16 -10z m-336 -54 c0 -27 -1 -29 -9 -10 -5 12 -14 25
-21 30 -9 5 -10 2 -6 -9 3 -10 2 -17 -3 -17 -6 0 -10 5 -10 12 0 9 -3 9 -12 0
-23 -23 -37 -13 -16 11 15 17 28 22 49 19 25 -4 29 -9 28 -36z m-172 7 c2 -6
-7 -8 -23 -5 -19 3 -22 7 -12 13 15 10 30 7 35 -8z m43 -3 c0 -5 -5 -10 -11
-10 -5 0 -7 5 -4 10 3 6 8 10 11 10 2 0 4 -4 4 -10z m-1425 -30 c-5 -8 -11 -8
-17 -2 -6 6 -7 16 -3 22 5 8 11 8 17 2 6 -6 7 -16 3 -22z m1210 20 c3 -5 1
-10 -4 -10 -6 0 -11 5 -11 10 0 6 2 10 4 10 3 0 8 -4 11 -10z m-1140 -30 c40
-25 49 -44 32 -70 -17 -28 -27 -25 -27 8 0 18 -10 36 -32 54 -39 32 -20 37 27
8z m-17 -39 c3 -8 -1 -12 -9 -9 -7 2 -15 10 -17 17 -3 8 1 12 9 9 7 -2 15 -10
17 -17z m151 -51 c6 0 11 -4 11 -10 0 -19 -28 -10 -59 19 -42 39 -39 50 3 17
19 -14 39 -26 45 -26z m-225 24 c12 -33 6 -54 -15 -54 -17 0 -20 4 -15 23 3
12 6 28 6 35 0 17 17 15 24 -4z m496 -65 c0 -6 -4 -7 -10 -4 -5 3 -10 11 -10
16 0 6 5 7 10 4 6 -3 10 -11 10 -16z m410 -24 c0 -8 -44 -5 -59 4 -28 18 -1
32 30 16 16 -9 29 -18 29 -20z m-500 21 c0 -3 -4 -8 -10 -11 -5 -3 -10 -1 -10
4 0 6 5 11 10 11 6 0 10 -2 10 -4z m645 -51 c60 -16 106 -44 55 -32 -14 4 -50
11 -80 17 -30 6 -65 13 -77 16 -13 2 -23 9 -23 15 0 13 40 8 125 -16z m135
-45 c0 -5 -4 -10 -10 -10 -5 0 -10 5 -10 10 0 6 5 10 10 10 6 0 10 -4 10 -10z
m-990 -35 c18 -2 37 -8 42 -13 9 -9 1 -42 -11 -42 -18 0 -101 61 -96 71 5 7
11 7 20 -1 7 -6 28 -13 45 -15z m230 5 c0 -5 -6 -10 -14 -10 -8 0 -18 5 -21
10 -3 6 3 10 14 10 12 0 21 -4 21 -10z m-95 -70 c25 -27 12 -37 -14 -11 -12
12 -21 23 -21 26 0 11 18 4 35 -15z m247 -32 c-9 -9 -12 -7 -12 12 0 19 3 21
12 12 9 -9 9 -15 0 -24z m138 -63 c0 -19 -4 -35 -10 -35 -5 0 -9 3 -9 8 3 20
-2 32 -16 32 -8 0 -15 5 -15 11 0 6 7 9 15 5 8 -3 15 -1 15 4 0 6 5 10 10 10
6 0 10 -16 10 -35z m110 -83 c0 -10 5 -23 12 -30 9 -9 5 -12 -20 -12 -29 0
-32 3 -32 30 0 23 4 30 20 30 13 0 20 -7 20 -18z"/>
<path d="M3312 4388 c-19 -19 -14 -28 18 -28 23 0 30 4 30 20 0 23 -29 27 -48
8z"/>
<path d="M2630 4296 c0 -2 7 -6 15 -10 8 -3 15 -1 15 4 0 6 -7 10 -15 10 -8 0
-15 -2 -15 -4z"/>
<path d="M2736 4266 c18 -8 37 -22 43 -33 10 -17 10 -16 11 5 0 15 -8 26 -26
32 -39 15 -63 11 -28 -4z"/>
<path d="M2810 4235 c0 -16 6 -25 15 -25 8 0 15 4 15 9 0 5 25 3 57 -4 31 -7
65 -10 77 -5 16 6 8 9 -34 15 -30 4 -68 13 -84 21 -40 19 -46 18 -46 -11z"/>
<path d="M2386 4195 c4 -9 11 -14 16 -13 15 5 11 23 -6 26 -11 2 -14 -2 -10
-13z"/>
<path d="M3043 4196 c2 -6 16 -12 31 -14 35 -4 26 14 -9 20 -16 4 -24 1 -22
-6z"/>
<path d="M3218 4183 c7 -3 16 -2 19 1 4 3 -2 6 -13 5 -11 0 -14 -3 -6 -6z"/>
<path d="M3300 4180 c0 -5 5 -10 10 -10 6 0 10 5 10 10 0 6 -4 10 -10 10 -5 0
-10 -4 -10 -10z"/>
<path d="M3686 4175 c-9 -9 -13 -22 -9 -28 4 -7 10 -3 16 10 8 18 13 20 35 12
22 -9 42 -5 31 5 -15 15 -58 16 -73 1z"/>
<path d="M3590 4169 c0 -7 -16 -8 -45 -3 -25 3 -45 2 -45 -2 0 -5 23 -10 50
-11 38 -2 50 1 50 12 0 8 -2 15 -5 15 -3 0 -5 -5 -5 -11z"/>
<path d="M1485 3770 c-3 -5 -1 -10 4 -10 6 0 11 5 11 10 0 6 -2 10 -4 10 -3 0
-8 -4 -11 -10z"/>
<path d="M3610 3770 c0 -5 5 -10 10 -10 6 0 10 5 10 10 0 6 -4 10 -10 10 -5 0
-10 -4 -10 -10z"/>
<path d="M1470 3726 c-6 -6 -10 -16 -10 -23 0 -8 10 -6 34 8 18 10 40 17 49
14 8 -4 18 -1 22 5 8 14 -81 10 -95 -4z"/>
<path d="M1090 3560 c0 -5 7 -10 15 -10 8 0 15 5 15 10 0 6 -7 10 -15 10 -8 0
-15 -4 -15 -10z"/>
<path d="M1247 3523 c-12 -11 -8 -23 8 -23 8 0 15 7 15 15 0 16 -12 20 -23 8z"/>
<path d="M1265 3480 c-3 -5 -1 -10 4 -10 6 0 11 5 11 10 0 6 -2 10 -4 10 -3 0
-8 -4 -11 -10z"/>
<path d="M1065 3360 c-3 -5 -21 -17 -40 -26 -19 -9 -35 -23 -35 -31 0 -13 3
-13 18 -2 48 37 82 69 73 69 -5 0 -13 -4 -16 -10z"/>
<path d="M895 3350 c-8 -13 5 -13 25 0 13 8 13 10 -2 10 -9 0 -20 -4 -23 -10z"/>
<path d="M2960 3278 c-24 -11 -23 -12 21 -18 72 -9 138 -55 172 -120 28 -52
29 -60 24 -150 -6 -102 -18 -145 -68 -237 -62 -114 -169 -246 -187 -228 -3 3
-8 164 -12 358 -4 213 -10 359 -17 371 -8 14 -12 -7 -17 -90 -4 -60 -10 -154
-14 -209 l-7 -100 -5 160 c-5 150 -6 143 -10 -120 -4 -270 -4 -456 0 -560 2
-44 3 -47 10 -20 6 24 8 26 9 8 1 -15 7 -23 20 -23 25 0 31 19 31 96 0 35 3
64 7 64 3 0 32 -25 64 -55 51 -49 63 -55 94 -53 47 3 53 14 17 32 -16 8 -52
40 -80 70 l-50 56 58 58 c58 59 100 118 158 224 89 165 83 328 -17 428 -64 64
-139 85 -201 58z m147 -38 c83 -50 123 -154 103 -270 -6 -38 -13 -70 -13 -70
-1 0 -2 39 -2 88 -1 123 -39 203 -120 253 -16 11 -23 19 -15 19 8 0 29 -9 47
-20z m-107 -816 c36 -37 56 -62 45 -56 -26 14 -132 122 -119 122 5 0 39 -30
74 -66z"/>
<path d="M3743 3253 c-31 -6 -120 -89 -142 -132 -11 -20 -26 -61 -35 -91 -26
-88 -58 -363 -60 -515 -1 -125 1 -144 20 -175 11 -19 32 -41 47 -48 40 -19
125 7 178 55 64 58 67 81 4 29 -68 -55 -105 -59 -139 -13 -27 37 -32 146 -17
372 24 345 94 540 171 470 18 -16 18 -16 13 5 -5 20 -4 21 15 11 12 -6 24 -22
26 -34 3 -12 7 -31 9 -42 3 -11 5 -1 6 21 2 63 -37 98 -96 87z m-166 -295 c-3
-7 -5 -2 -5 12 0 14 2 19 5 13 2 -7 2 -19 0 -25z m-10 -60 c-3 -8 -6 -5 -6 6
-1 11 2 17 5 13 3 -3 4 -12 1 -19z m-10 -65 c-3 -10 -5 -2 -5 17 0 19 2 27 5
18 2 -10 2 -26 0 -35z m-20 -220 c-3 -10 -5 -2 -5 17 0 19 2 27 5 18 2 -10 2
-26 0 -35z"/>
<path d="M3421 3215 c-69 -37 -107 -68 -123 -100 -6 -12 6 -5 28 16 22 21 67
51 102 68 34 17 62 36 62 41 0 13 4 15 -69 -25z"/>
<path d="M1755 3200 c-4 -19 -11 -217 -15 -440 l-7 -405 -3 425 c-4 406 -4
415 -11 200 -9 -295 -10 -605 -3 -623 4 -12 11 -13 36 -3 l30 11 -3 411 c-2
226 -6 422 -10 435 -5 22 -6 21 -14 -11z"/>
<path d="M2348 3130 c-6 -114 -35 -399 -43 -415 -3 -5 -3 22 0 60 7 103 13
266 8 220 -2 -22 -19 -167 -38 -322 -48 -386 -47 -401 11 -374 32 14 34 18 34
68 0 121 51 413 72 413 5 0 7 4 3 9 -10 16 71 189 115 246 53 68 103 113 135
121 51 13 105 -31 105 -85 0 -46 -33 -122 -72 -166 -56 -64 -124 -95 -206 -95
-55 0 -63 -2 -60 -17 3 -15 14 -18 59 -18 198 1 409 280 296 392 -51 51 -134
26 -234 -69 -53 -52 -117 -136 -118 -158 -1 -3 -6 -15 -13 -26 -6 -12 -8 -24
-5 -28 3 -3 -1 -6 -9 -6 -9 0 -19 -6 -22 -12 -4 -7 -4 61 -2 152 4 190 -8 275
-16 110z m411 14 c22 -28 26 -65 11 -99 -7 -16 -9 -14 -9 15 -1 19 -10 52 -21
73 -23 43 -11 49 19 11z m-384 -324 c-4 -12 -9 -19 -12 -17 -3 3 -2 15 2 27 4
12 9 19 12 17 3 -3 2 -15 -2 -27z m-78 -167 c-3 -10 -5 -2 -5 17 0 19 2 27 5
18 2 -10 2 -26 0 -35z m-10 -65 c-3 -7 -5 -2 -5 12 0 14 2 19 5 13 2 -7 2 -19
0 -25z m-10 -115 c-3 -10 -5 -4 -5 12 0 17 2 24 5 18 2 -7 2 -21 0 -30z"/>
<path d="M1805 3206 c-17 -12 -15 -14 28 -17 26 -2 48 0 50 5 5 16 70 -25 122
-78 98 -99 166 -270 163 -410 -1 -76 -2 -77 -7 -26 l-6 55 -12 -73 c-13 -85
-47 -160 -99 -221 -47 -55 -92 -82 -181 -110 -39 -13 -74 -30 -77 -38 -7 -17
27 -12 113 18 69 24 113 53 194 129 90 84 112 136 111 260 -1 77 -6 109 -29
170 -76 209 -204 350 -316 350 -19 0 -44 -6 -54 -14z m352 -608 c-3 -8 -6 -5
-6 6 -1 11 2 17 5 13 3 -3 4 -12 1 -19z"/>
<path d="M1265 3185 c11 -52 14 -113 7 -152 l-7 -38 -6 50 c-3 29 -7 -18 -7
-110 -1 -88 -9 -223 -17 -300 -25 -233 -18 -322 26 -346 11 -5 41 -10 67 -10
58 0 255 37 296 57 29 13 28 14 -34 8 -36 -4 -99 -10 -140 -14 -49 -5 -84 -3
-100 4 l-25 11 -6 355 c-7 352 -14 435 -44 488 l-16 27 6 -30z m12 -302 c-2
-16 -4 -5 -4 22 0 28 2 40 4 28 2 -13 2 -35 0 -50z m0 -100 c-2 -16 -4 -5 -4
22 0 28 2 40 4 28 2 -13 2 -35 0 -50z"/>
<path d="M3923 3173 c-15 -12 -15 -14 -1 -25 25 -20 28 -72 13 -218 l-13 -135
1 98 c1 53 -1 97 -4 97 -4 0 -10 -60 -14 -132 -3 -73 -11 -185 -16 -248 -12
-155 -11 -251 2 -289 6 -18 13 -30 15 -28 3 2 26 0 52 -4 58 -11 191 5 247 31
l40 18 -149 -6 -149 -5 6 33 c4 18 7 65 7 104 l0 72 88 0 c61 0 96 4 116 16
l30 16 -40 -1 c-21 0 -73 3 -114 7 l-75 7 0 282 0 282 70 -3 c70 -4 170 12
180 28 9 15 -272 17 -292 3z m-6 -530 c-2 -16 -4 -3 -4 27 0 30 2 43 4 28 2
-16 2 -40 0 -55z m-10 -195 c-2 -18 -4 -4 -4 32 0 36 2 50 4 33 2 -18 2 -48 0
-65z m0 -105 c-3 -10 -5 -2 -5 17 0 19 2 27 5 18 2 -10 2 -26 0 -35z"/>
<path d="M1910 3167 c0 -2 15 -14 33 -27 l32 -23 -24 26 c-21 23 -41 35 -41
24z"/>
<path d="M905 3148 c-30 -16 -65 -50 -65 -62 0 -6 7 -2 16 9 12 17 16 18 24 5
7 -12 13 -11 34 10 25 22 35 50 19 50 -5 0 -17 -6 -28 -12z"/>
<path d="M1241 3124 c0 -11 3 -14 6 -6 3 7 2 16 -1 19 -3 4 -6 -2 -5 -13z"/>
<path d="M790 3120 c0 -5 5 -10 11 -10 5 0 7 5 4 10 -3 6 -8 10 -11 10 -2 0
-4 -4 -4 -10z"/>
<path d="M2000 3081 c0 -6 4 -13 10 -16 6 -3 7 1 4 9 -7 18 -14 21 -14 7z"/>
<path d="M3923 3040 c0 -25 2 -35 4 -22 2 12 2 32 0 45 -2 12 -4 2 -4 -23z"/>
<path d="M3395 2958 c-15 -62 -33 -142 -40 -178 -7 -36 -14 -55 -14 -43 -1 12
10 73 24 137 14 64 25 126 24 138 -2 47 -69 -271 -79 -372 -13 -132 -13 -320
0 -340 7 -11 10 -5 11 25 2 37 2 38 6 8 4 -32 25 -44 38 -23 3 6 10 105 16
221 7 179 19 282 55 507 3 17 1 32 -5 32 -5 0 -21 -51 -36 -112z m-58 -305
c-3 -10 -5 -2 -5 17 0 19 2 27 5 18 2 -10 2 -26 0 -35z m-10 -80 c-3 -10 -5
-4 -5 12 0 17 2 24 5 18 2 -7 2 -21 0 -30z"/>
<path d="M930 3025 c0 -15 4 -24 10 -20 6 3 10 12 10 20 0 8 -4 17 -10 20 -6
4 -10 -5 -10 -20z"/>
<path d="M2065 2977 c16 -34 31 -59 33 -55 4 8 -44 105 -56 112 -4 2 6 -23 23
-57z"/>
<path d="M4660 3030 c0 -5 5 -10 11 -10 5 0 7 5 4 10 -3 6 -8 10 -11 10 -2 0
-4 -4 -4 -10z"/>
<path d="M837 2955 c-15 -11 -16 -17 -7 -34 6 -12 13 -21 15 -21 11 0 25 42
18 54 -7 12 -11 12 -26 1z"/>
<path d="M2107 2880 c3 -11 9 -22 13 -25 5 -3 6 4 3 15 -3 11 -9 22 -13 25 -5
3 -6 -4 -3 -15z"/>
<path d="M4435 2860 c3 -5 8 -10 11 -10 2 0 4 5 4 10 0 6 -5 10 -11 10 -5 0
-7 -4 -4 -10z"/>
<path d="M2127 2819 c4 -13 8 -18 11 -10 2 7 -1 18 -6 23 -8 8 -9 4 -5 -13z"/>
<path d="M2142 2765 c0 -16 2 -22 5 -12 2 9 2 23 0 30 -3 6 -5 -1 -5 -18z"/>
<path d="M1853 1928 l2 -103 48 -3 c28 -2 47 1 47 7 0 6 -18 11 -40 11 l-40 0
0 95 c0 52 -4 95 -9 95 -5 0 -9 -45 -8 -102z"/>
<path d="M2039 2018 c-2 -7 -1 -56 2 -108 l5 -95 2 108 c2 100 -1 125 -9 95z"/>
<path d="M2165 1930 c-15 -55 -25 -103 -22 -106 2 -3 9 9 15 25 9 27 16 31 46
31 29 0 36 -4 46 -32 7 -18 14 -28 16 -23 6 15 -51 198 -63 202 -5 2 -22 -42
-38 -97z m64 -22 c1 -5 -11 -8 -25 -8 -22 0 -24 3 -19 23 4 12 9 31 12 42 5
17 8 15 19 -15 7 -19 13 -38 13 -42z"/>
<path d="M2362 1923 c2 -95 2 -99 5 -30 2 42 8 77 13 77 7 0 24 -39 56 -129 7
-22 19 -3 44 72 12 38 26 65 31 60 4 -4 10 -42 12 -83 3 -64 3 -59 5 33 2 87
-1 107 -12 107 -9 0 -23 -27 -38 -71 -13 -39 -28 -70 -33 -70 -5 0 -20 31 -33
70 -15 44 -29 71 -38 71 -11 0 -14 -20 -12 -107z"/>
<path d="M2771 1923 c1 -63 4 -93 8 -73 5 31 10 35 41 38 42 4 60 24 60 70 0
56 -15 72 -65 72 l-45 0 1 -107z m87 39 c3 -38 0 -43 -23 -52 -42 -16 -45 -13
-45 46 l0 55 33 -3 c30 -3 32 -6 35 -46z"/>
<path d="M2960 1925 c0 -59 4 -105 9 -105 6 0 11 14 13 32 4 45 24 46 50 2 22
-38 39 -33 18 6 -9 17 -8 25 4 39 19 21 22 101 4 119 -7 7 -31 12 -55 12 l-43
0 0 -105z m88 37 c3 -38 0 -43 -23 -52 -38 -14 -45 -6 -45 51 l0 50 33 -3 c30
-3 32 -6 35 -46z"/>
<path d="M3174 1925 c0 -60 1 -84 3 -52 2 32 2 81 0 110 -2 29 -3 3 -3 -58z"/>
<path d="M3292 2018 c-7 -7 -12 -42 -12 -95 0 -71 3 -84 19 -93 50 -26 111 -2
111 43 -1 20 -2 20 -16 -5 -11 -22 -22 -28 -47 -28 -47 0 -57 15 -57 85 0 47
4 66 18 78 25 23 48 21 73 -4 23 -23 39 -17 23 9 -14 21 -93 29 -112 10z"/>
<path d="M3508 2018 c-3 -7 -4 -53 -4 -103 l1 -90 48 -3 c28 -2 47 1 47 7 0 6
-18 11 -40 11 l-40 0 0 40 c0 39 1 40 35 40 19 0 35 5 35 10 0 6 -16 10 -36
10 -35 0 -35 1 -32 38 3 36 4 37 48 43 l45 6 -51 1 c-34 1 -53 -2 -56 -10z"/>
<path d="M135 2520 c-3 -5 -1 -10 4 -10 6 0 11 5 11 10 0 6 -2 10 -4 10 -3 0
-8 -4 -11 -10z"/>
<path d="M199 3113 c-13 -16 -12 -17 4 -4 9 7 17 15 17 17 0 8 -8 3 -21 -13z"/>
<path d="M201 3036 c-7 -8 -9 -21 -5 -27 5 -9 10 -5 16 11 10 28 5 36 -11 16z"/>
<path d="M107 2803 c-11 -18 -19 -78 -9 -68 5 6 12 25 15 43 6 30 3 41 -6 25z"/>
<path d="M55 2720 c3 -5 8 -10 11 -10 2 0 4 5 4 10 0 6 -5 10 -11 10 -5 0 -7
-4 -4 -10z"/>
<path d="M30 2625 c-7 -9 -8 -15 -2 -15 5 0 12 7 16 15 3 8 4 15 2 15 -2 0 -9
-7 -16 -15z"/>
<path d="M45 2260 c-3 -5 -1 -10 4 -10 6 0 11 5 11 10 0 6 -2 10 -4 10 -3 0
-8 -4 -11 -10z"/>
<path d="M96 2148 c-9 -36 -7 -88 4 -88 6 0 10 25 10 55 0 59 -4 69 -14 33z"/>
<path d="M55 2069 c-4 -11 -4 -23 -2 -26 9 -8 27 7 27 22 0 23 -18 27 -25 4z"/>
<path d="M130 1890 c0 -5 5 -10 11 -10 5 0 7 5 4 10 -3 6 -8 10 -11 10 -2 0
-4 -4 -4 -10z"/>
<path d="M1260 916 c0 -10 82 -68 87 -62 10 10 -49 66 -69 66 -10 0 -18 -2
-18 -4z"/>
<path d="M580 878 c0 -9 5 -20 10 -23 13 -8 13 5 0 25 -8 13 -10 13 -10 -2z"/>
<path d="M4195 736 c-11 -6 -25 -18 -31 -26 -7 -9 -33 -26 -58 -38 -25 -13
-51 -32 -56 -43 -6 -10 -20 -19 -30 -19 -11 0 -20 -4 -20 -9 0 -21 18 -19 51
7 19 15 46 33 60 41 14 7 38 23 54 37 15 13 36 26 46 29 19 6 25 20 12 28 -5
3 -17 0 -28 -7z"/>
<path d="M970 580 c0 -5 5 -10 11 -10 5 0 7 5 4 10 -3 6 -8 10 -11 10 -2 0 -4
-4 -4 -10z"/>
<path d="M3926 561 c-28 -31 -15 -46 17 -21 15 12 27 26 27 31 0 16 -26 10
-44 -10z"/>
<path d="M4015 550 c-3 -5 -1 -10 4 -10 6 0 11 5 11 10 0 6 -2 10 -4 10 -3 0
-8 -4 -11 -10z"/>
<path d="M1052 530 c14 -22 24 -19 15 5 -4 8 -11 15 -17 15 -6 0 -6 -7 2 -20z"/>
<path d="M3839 524 c-12 -15 -11 -16 11 -9 35 10 49 25 23 25 -11 0 -27 -7
-34 -16z"/>
<path d="M3675 491 c-16 -9 -47 -26 -68 -38 -56 -33 -160 -73 -191 -73 -14 0
-29 -7 -32 -15 -4 -8 -13 -15 -22 -15 -12 0 -13 -3 -5 -11 9 -9 23 -9 55 -1
79 21 93 20 90 -5 -2 -16 2 -23 13 -23 13 0 15 6 10 29 -7 34 15 54 73 66 26
5 31 10 22 20 -9 11 -3 18 34 35 25 12 50 28 57 36 15 18 2 16 -36 -5z"/>
<path d="M3928 502 c-10 -2 -18 -8 -18 -13 0 -11 11 -11 30 1 18 11 11 18 -12
12z"/>
<path d="M3720 453 c-13 -15 -12 -16 4 -10 10 4 24 7 32 7 8 0 14 5 14 10 0
16 -34 11 -50 -7z"/>
<path d="M2820 384 c0 -9 5 -14 12 -12 18 6 21 28 4 28 -9 0 -16 -7 -16 -16z"/>
<path d="M3660 380 c0 -5 5 -10 10 -10 6 0 10 5 10 10 0 6 -4 10 -10 10 -5 0
-10 -4 -10 -10z"/>
<path d="M2555 338 c1 -33 6 -44 23 -51 30 -14 38 -2 21 30 -30 56 -34 63 -39
63 -4 0 -6 -19 -5 -42z"/>
<path d="M2680 366 c0 -9 5 -16 10 -16 6 0 10 4 10 9 0 6 -4 13 -10 16 -5 3
-10 -1 -10 -9z"/>
<path d="M2970 360 c-24 -15 -6 -21 39 -14 29 5 38 10 29 15 -17 11 -49 11
-68 -1z"/>
<path d="M2075 350 c-3 -5 0 -10 7 -10 7 0 26 -7 42 -15 38 -20 44 -13 10 14
-29 23 -49 27 -59 11z"/>
<path d="M2740 340 c0 -5 9 -10 20 -10 11 0 20 5 20 10 0 6 -9 10 -20 10 -11
0 -20 -4 -20 -10z"/>
<path d="M3234 336 c-9 -24 3 -47 21 -40 19 8 19 28 0 44 -12 10 -16 9 -21 -4z"/>
<path d="M2180 317 c0 -7 59 -37 72 -37 4 0 8 7 8 15 0 9 -9 15 -24 15 -13 0
-31 3 -40 6 -9 3 -16 4 -16 1z"/>
<path d="M2647 285 c-16 -12 -16 -13 0 -26 15 -12 16 -12 10 3 -3 9 -1 19 6
21 7 2 10 7 7 10 -3 3 -13 0 -23 -8z"/>
<path d="M3145 290 c3 -5 8 -10 11 -10 2 0 4 5 4 10 0 6 -5 10 -11 10 -5 0 -7
-4 -4 -10z"/>
<path d="M3340 280 c-8 -5 -25 -10 -37 -10 -13 0 -23 -5 -23 -11 0 -7 10 -9
28 -5 106 26 127 36 75 36 -16 0 -35 -5 -43 -10z"/>
<path d="M2340 270 c0 -5 7 -10 16 -10 8 0 12 5 9 10 -3 6 -10 10 -16 10 -5 0
-9 -4 -9 -10z"/>
<path d="M2400 267 c0 -17 65 -36 77 -23 11 10 -10 25 -45 32 -25 5 -32 3 -32
-9z"/>
<path d="M2570 245 c7 -8 17 -15 22 -15 6 0 5 7 -2 15 -7 8 -17 15 -22 15 -6
0 -5 -7 2 -15z"/>
<path d="M3230 245 c0 -9 5 -15 11 -13 6 2 11 8 11 13 0 5 -5 11 -11 13 -6 2
-11 -4 -11 -13z"/>
<path d="M2505 240 c-3 -5 1 -10 9 -10 9 0 16 5 16 10 0 6 -4 10 -9 10 -6 0
-13 -4 -16 -10z"/>
<path d="M2540 232 c0 -5 7 -16 16 -23 14 -12 16 -11 13 5 -4 20 -29 35 -29
18z"/>
<path d="M3117 223 c-15 -14 -6 -24 16 -18 35 11 44 25 16 25 -14 0 -29 -3
-32 -7z"/>
<path d="M3037 209 c-10 -6 -25 -8 -32 -5 -8 3 -17 1 -20 -5 -4 -5 1 -12 9
-15 17 -7 83 13 91 27 8 12 -26 11 -48 -2z"/>
<path d="M2510 177 c0 -21 5 -27 22 -27 21 0 21 0 2 23 -10 12 -20 24 -21 26
-2 2 -3 -8 -3 -22z"/>
<path d="M2790 181 c0 -10 -13 -12 -57 -8 -32 3 -76 2 -98 -2 -40 -8 -40 -8
-12 -16 28 -7 261 1 304 12 13 3 21 8 18 12 -6 11 -96 11 -116 1 -10 -6 -20
-5 -27 2 -9 9 -12 9 -12 -1z"/>
<path d="M2958 133 c7 -3 16 -2 19 1 4 3 -2 6 -13 5 -11 0 -14 -3 -6 -6z"/>
<path d="M2908 123 c7 -3 16 -2 19 1 4 3 -2 6 -13 5 -11 0 -14 -3 -6 -6z"/>
<path d="M3025 113 c-26 -6 -44 -23 -24 -23 26 0 59 12 59 21 0 9 -3 10 -35 2z"/>
<path d="M2914 85 c-10 -8 -14 -14 -9 -15 15 0 40 18 34 24 -3 3 -14 -1 -25
-9z"/>
<path d="M2955 90 c-3 -5 -1 -10 4 -10 6 0 11 5 11 10 0 6 -2 10 -4 10 -3 0
-8 -4 -11 -10z"/>
<path d="M2380 10 l-35 -7 38 -2 c20 0 37 4 37 9 0 6 -1 9 -2 9 -2 -1 -19 -5
-38 -9z"/>
</g>
</svg>
